<mxfile host="65bd71144e">
    <diagram name="Page-1" id="9f46799a-70d6-7492-0946-bef42562c5a5">
        <mxGraphModel dx="1358" dy="647" grid="1" gridSize="10" guides="1" tooltips="1" connect="1" arrows="1" fold="1" page="1" pageScale="1" pageWidth="827" pageHeight="1169" math="0" shadow="0">
            <root>
                <mxCell id="0"/>
                <mxCell id="1" parent="0"/>
                <mxCell id="22" value="User" style="swimlane;horizontal=0;startSize=20;horizontal=1;html=1;" vertex="1" parent="1">
                    <mxGeometry x="80" y="60" width="140" height="180" as="geometry"/>
                </mxCell>
                <mxCell id="23" value="- userId&#10;- username&#10;- password&#10;- email&#10;- role" style="text;html=1;whiteSpace=wrap;rounded=0;" vertex="1" parent="22">
                    <mxGeometry y="20" width="140" height="90" as="geometry"/>
                </mxCell>
                <mxCell id="24" value="+ signUp()&#10;+ logIn()&#10;+ submitProposal()&#10;+ viewProposal()" style="text;html=1;whiteSpace=wrap;rounded=0;" vertex="1" parent="22">
                    <mxGeometry y="110" width="140" height="70" as="geometry"/>
                </mxCell>
                <mxCell id="25" value="Panelist" style="swimlane;horizontal=0;startSize=20;horizontal=1;html=1;" vertex="1" parent="1">
                    <mxGeometry x="300" y="60" width="140" height="100" as="geometry"/>
                </mxCell>
                <mxCell id="26" value="+ approveProposal()&#10;+ rejectProposal()" style="text;html=1;whiteSpace=wrap;rounded=0;" vertex="1" parent="25">
                    <mxGeometry y="20" width="140" height="70" as="geometry"/>
                </mxCell>
                <mxCell id="27" value="Proposal" style="swimlane;horizontal=0;startSize=20;horizontal=1;html=1;" vertex="1" parent="1">
                    <mxGeometry x="80" y="300" width="140" height="180" as="geometry"/>
                </mxCell>
                <mxCell id="28" value="- proposalId&#10;- proposalName&#10;- description&#10;- createdDate&#10;- status&#10;- userId&#10;- sponsorId" style="text;html=1;whiteSpace=wrap;rounded=0;" vertex="1" parent="27">
                    <mxGeometry y="20" width="140" height="120" as="geometry"/>
                </mxCell>
                <mxCell id="29" value="+ updateStatus()" style="text;html=1;whiteSpace=wrap;rounded=0;" vertex="1" parent="27">
                    <mxGeometry y="140" width="140" height="40" as="geometry"/>
                </mxCell>
                <mxCell id="30" value="Attachment" style="swimlane;horizontal=0;startSize=20;horizontal=1;html=1;" vertex="1" parent="1">
                    <mxGeometry x="300" y="300" width="140" height="140" as="geometry"/>
                </mxCell>
                <mxCell id="31" value="- attachmentId&#10;- fileName&#10;- fileUrl&#10;- proposalId" style="text;html=1;whiteSpace=wrap;rounded=0;" vertex="1" parent="30">
                    <mxGeometry y="20" width="140" height="80" as="geometry"/>
                </mxCell>
                <mxCell id="32" value="+ upload()&#10;+ download()" style="text;html=1;whiteSpace=wrap;rounded=0;" vertex="1" parent="30">
                    <mxGeometry y="100" width="140" height="40" as="geometry"/>
                </mxCell>
                <mxCell id="33" value="Notification" style="swimlane;horizontal=0;startSize=20;horizontal=1;html=1;" vertex="1" parent="1">
                    <mxGeometry x="520" y="60" width="140" height="140" as="geometry"/>
                </mxCell>
                <mxCell id="34" value="- notificationId&#10;- message&#10;- userId&#10;- proposalId&#10;- createdDate" style="text;html=1;whiteSpace=wrap;rounded=0;" vertex="1" parent="33">
                    <mxGeometry y="20" width="140" height="80" as="geometry"/>
                </mxCell>
                <mxCell id="35" value="+ sendNotification()" style="text;html=1;whiteSpace=wrap;rounded=0;" vertex="1" parent="33">
                    <mxGeometry y="100" width="140" height="40" as="geometry"/>
                </mxCell>
                <mxCell id="36" value="" style="edgeStyle=orthogonalEdgeStyle;rounded=0;orthogonalLoop=1;jettySize=auto;html=1;" edge="1" parent="1" source="22" target="27">
                    <mxGeometry relative="1" as="geometry"/>
                </mxCell>
                <mxCell id="37" value="" style="edgeStyle=orthogonalEdgeStyle;rounded=0;orthogonalLoop=1;jettySize=auto;html=1;" edge="1" parent="1" source="27" target="30">
                    <mxGeometry relative="1" as="geometry"/>
                </mxCell>
                <mxCell id="38" value="" style="edgeStyle=orthogonalEdgeStyle;rounded=0;orthogonalLoop=1;jettySize=auto;html=1;" edge="1" parent="1" source="33" target="22">
                    <mxGeometry relative="1" as="geometry"/>
                </mxCell>
            </root>
        </mxGraphModel>
    </diagram>
</mxfile>